<svg width="385" height="154" viewBox="0 0 385 154" fill="none" xmlns="http://www.w3.org/2000/svg">
<path d="M28.8473 104.368H0V17.7868L13.3141 4H73.2277L180.85 95.5441V109.331H160.324L137.579 130.838V153.449H97.6369V141.868H117.608L125.929 90.0294L75.4467 26.6103H28.8473V104.368Z" fill="#26A92C"/>
<path d="M356.153 104.738H385V17.8376L371.686 4H311.772L204.15 95.8819V109.72H224.676L247.421 131.306V154H287.363V142.376H267.392L259.071 90.3469L309.553 26.6937H356.153V104.738Z" fill="#26A92C"/>
<path d="M159.769 95.5441H225.231V109.882H159.769V95.5441Z" fill="#26A92C"/>
<path fill-rule="evenodd" clip-rule="evenodd" d="M247 0H216.948V24.6525H192V79L247 34.7376V0ZM221.184 36.7183H194.245V53.4084L221.184 36.7183Z" fill="#26A92C"/>
<path fill-rule="evenodd" clip-rule="evenodd" d="M138 0H167.505V24.6525H192V79L138 34.7376V0ZM163.347 36.7183H189.796V53.4084L163.347 36.7183Z" fill="#26A92C"/>
</svg>
