<svg width="294" height="233" viewBox="0 0 294 233" fill="none" xmlns="http://www.w3.org/2000/svg">
<path fill-rule="evenodd" clip-rule="evenodd" d="M30.6592 207.324L0 233H30.6592L52.0112 222.62L73.3631 233H109.497L36.6816 177.55V120.188L73.3631 87.136V177.55L109.497 207.324H188.061L218.721 177.55V87.136L262.52 120.188V173.179L188.061 233H218.721L240.346 222.62L262.52 233H294L262.52 207.324L294 177.55V87.136L188.061 0H105.117L0 87.136V177.55L30.6592 207.324ZM116.734 116H131V136.513H137.734V116H152V136.513H157.234V116H171.5V136.513H176.493V117.641L216 150.188L176.493 180V160.308H171.5V177.265H157.234V160.308H152V177.265H137.734V160.308H131V177.265H116.734V160.308H111.471V180L78 150.188L111.471 117.641V136.513H116.734V116ZM149.74 89.7193L157.685 58H176.315L187 89.7193H176.315V76.5263H157.685V89.7193H149.74ZM107 90L114.945 58.2807H133.575L144.26 90H133.575V76.807H114.945V90H107Z" fill="#CD5D23"/>
</svg>
